<svg width="267" height="248" viewBox="0 0 267 248" fill="none" xmlns="http://www.w3.org/2000/svg">
<rect x="6.00765" y="62.7778" width="154" height="91" rx="14" transform="rotate(-13.1693 6.00765 62.7778)" stroke="#10B981" stroke-width="10"/>
<path d="M127 22.6844C125 12.6844 134.505 6.75408 144.997 6.57829L239.037 5.00274C249.529 4.82695 258.177 13.1898 258.352 23.6818L261.666 221.464C261.842 231.956 253.479 240.604 242.987 240.78L148.948 242.355C138.456 242.531 129.808 234.168 129.632 223.676C129.632 223.676 130 151.184 128.5 144.684" stroke="#10B981" stroke-width="10"/>
<rect x="175" y="17.6844" width="26" height="4" rx="1" fill="#10B981"/>
<rect x="204" y="17.6844" width="6" height="4" rx="1" fill="#10B981"/>
<rect x="172" y="229.684" width="45" height="2" rx="1" fill="#10B981"/>
<path d="M153.5 136.684C159.134 153.986 171.531 162.684 191.5 162.684C216.077 162.684 236 143.657 236 120.184C236 96.7124 216.077 77.6845 191.5 77.6845C188.062 77.6845 184.714 78.0569 181.5 78.7618" stroke="#10B981" stroke-width="6"/>
<rect x="178.605" y="122.684" width="20.3661" height="5.62659" rx="1" transform="rotate(39.839 178.605 122.684)" fill="#10B981"/>
<rect x="210.466" y="106.398" width="6.45821" height="37.2807" rx="1" transform="rotate(39.839 210.466 106.398)" fill="#10B981"/>
</svg>
