<svg width="227" height="163" viewBox="0 0 227 163" fill="none" xmlns="http://www.w3.org/2000/svg">
<path d="M95.1763 118.613L42.9862 132C32.6689 134.646 22.1921 128.295 19.7655 117.924L5.50509 56.9778C3.11438 46.7603 9.45921 36.5394 19.6767 34.1487L142.093 5.50531C152.415 3.0901 162.717 9.58907 164.983 19.9451L169.176 39.1134" stroke="#10B981" stroke-width="10"/>
<path d="M151.816 103.55C153.971 106.57 156.758 109.097 159.986 110.959C163.214 112.821 166.808 113.974 170.525 114.341C174.243 114.707 177.995 114.278 181.529 113.083C185.064 111.888 188.296 109.954 191.008 107.413L207.057 92.3812C211.934 87.6514 214.738 81.2139 214.865 74.4554C214.991 67.6968 212.431 61.1579 207.734 56.247C203.038 51.3361 196.581 48.4462 189.755 48.1996C182.929 47.953 176.28 50.3695 171.24 54.9286L162.039 63.4956" stroke="#10B981" stroke-width="10" stroke-linecap="round" stroke-linejoin="round"/>
<path d="M172.932 93.8147C170.777 90.7941 167.991 88.2671 164.763 86.4052C161.534 84.5432 157.94 83.3899 154.223 83.0235C150.506 82.657 146.753 83.0859 143.219 84.2812C139.685 85.4765 136.452 87.4101 133.74 89.9509L117.691 104.983C112.814 109.713 110.01 116.15 109.883 122.909C109.757 129.668 112.317 136.206 117.014 141.117C121.71 146.028 128.167 148.918 134.993 149.165C141.819 149.411 148.468 146.995 153.508 142.436L162.657 133.867" stroke="#10B981" stroke-width="10" stroke-linecap="round" stroke-linejoin="round"/>
</svg>
