<svg width="233" height="213" viewBox="0 0 233 213" fill="none" xmlns="http://www.w3.org/2000/svg">
<path d="M61.316 105.003C59.8018 111.258 59 117.786 59 124.5C59 170.616 96.8319 208 143.5 208C190.168 208 228 170.616 228 124.5C228 78.3842 190.168 41 143.5 41C127.317 41 110.106 46.3433 98.2925 54.1396" stroke="white" stroke-width="10"/>
<path d="M101.145 99.4193C105.669 88.6922 119.426 90.4193 123.926 99.4193" stroke="#D9D9D9" stroke-width="10" stroke-linecap="round"/>
<path d="M163.79 99.8902C168.313 89.1631 182.071 90.8902 186.571 99.8902" stroke="#D9D9D9" stroke-width="10" stroke-linecap="round"/>
<path d="M146.645 130.971L143.645 140.971C143.645 140.971 153.645 148.471 155.645 148.471C157.645 148.471 143.645 158.971 143.645 158.971L150.145 167.971" stroke="white" stroke-width="10" stroke-linecap="round"/>
<ellipse cx="119.645" cy="102.971" rx="10" ry="9.5" fill="#D9D9D9"/>
<ellipse cx="182.29" cy="103.442" rx="10" ry="9.5" fill="#D9D9D9"/>
<path d="M81.4444 54H35.5556C31.935 54 29 56.6049 29 59.8182V80.1818C29 83.3951 31.935 86 35.5556 86H81.4444C85.065 86 88 83.3951 88 80.1818V59.8182C88 56.6049 85.065 54 81.4444 54Z" stroke="white" stroke-width="10" stroke-linecap="round" stroke-linejoin="round"/>
<path d="M42 54V42C42 38.0218 43.7384 34.2064 46.8327 31.3934C49.9271 28.5804 54.1239 27 58.5 27C62.8761 27 67.0729 28.5804 70.1673 31.3934C73.2616 34.2064 75 38.0218 75 42V54" stroke="white" stroke-width="10" stroke-linecap="round" stroke-linejoin="round"/>
</svg>
